<svg xmlns="http://www.w3.org/2000/svg" viewBox="0 0 316 316"><g fill="none" stroke-width="2"><path stroke="#170c1a" d="M67.57 0q-9.72.75-19.51.47-.75-.02-.97.57-.19.5.35.5l14.88-.14q.68-.01.68.67v.99q0 .68.68.59 7.89-1.08 15.77.25.33.05.02.19c-1.69.81-2.61 1.66-4.57 2.22-2.11.6-3.56 2.2-5.38 3q-3.05 1.33-5.63 3.41c-2.01 1.62-4.3 2.43-6.3 4.08q-2.53 2.09-4.28 3.19c-4.39 2.74-7.71 6.95-11.82 9.88-4.32 3.08-8.02 7.08-11.4 11.13-3.14 3.79-6.01 6.92-8.9 10.49-1.13 1.4-1.83 3.15-3.1 4.67-3.81 4.57-6.86 9.94-9.89 15.04-1.42 2.38-2.38 5.19-3.87 7.78-2.34 4.09-2.82 7.07-2.91 11.45q-.76 34.38-1 68.75 0 .13.24.93.1.35.09.89-.27 21.36.58 53.62 0 .07.06.07h.06a.19.04 90 0 0 .04-.19l.02-4.45a.37.37 0 0 1 .74-.03l.42 5.06q.03.42.23.8.91 1.78 2.07 5.92c1.38 4.95 5.85 10.36 8.83 16.12q1.45 2.79 2.63 4.23c3.02 3.69 4.34 7.74 7.31 10.52q1.88 1.76 2.62 2.92 3.19 5.03 7.76 8.93c1.25 1.06 1.8 2.37 3.04 3.46 2.69 2.34 5.19 4.9 7.81 7.32 3.86 3.57 8.51 6.76 12.85 10.07 5.23 3.97 11.82 8.34 17.78 11.05 3.83 1.74 7.54 3.96 11.2 5.36 4.95 1.88 10.33 4.3 15.15 5.33q.38.08.62.4 1.29 1.75 3.48 1.49a1.93 1.92-35.4 0 1 1.03.17q2.54 1.18 5.32 1.17.48 0 .88.25 3.56 2.21 7.8 1.59.57-.09.8.44l.12.25q.18.41.63.41l60.84-.05a.26.26 0 0 0 .22-.39l-.16-.26a.35.35 0 0 1 .28-.52c5.52-.36 10.34-1.9 15.7-2.95 2.31-.45 4.04-3.07 6.37-1.58q.3.2.63.04.11-.05.22-.12a.12.12 0 0 0-.01-.2q-.33-.19-.23-.68a.15.13-89.2 0 1 .1-.11c4.3-1.28 7.76-2.88 11.93-4.49 5.7-2.2 10.12-5.08 17.57-8.73 1.39-.68 2.31-2.04 3.73-2.8q6.2-3.3 7.9-4.98c2.91-2.89 6.63-4.8 9.39-7.31 7.06-6.44 12.86-11.43 20.22-20.23q.45-.54 1.08-.22.95.48 1.21-.69.15-.69.77-.36l1.07.57q.54.29.75-.28l.58-1.57q.11-.31-.22-.26l-.4.07a.24.24 0 0 1-.23-.38q.3-.4-.41-.85a.76.75-67 0 1-.33-.82q.58-2.23 2.49-2.19a.37.36-85.7 0 0 .37-.33l.61-6.07q.07-.65.61-1.02 1.27-.88 1.39-2.36.04-.51.45-.82 2.54-1.92 3.66-4.87.15-.4.56-.5 1.85-.48 1.21-2.67a.78.77 65.9 0 1 .33-.88c2.03-1.3 3.71-2.09 4.82-4.43 1.32-2.78 2.83-4.57 3.82-7.76q.67-2.11 2.19-4.74c2.08-3.59 3.1-10.05 5.39-14.58q.21-.41.13-.87-.14-.76.36-1.29.42-.43.5.16l.73 4.92a.15.15 0 0 0 .29-.02q.06-4.78.22-9.51c.08-2.57-.34-6.34.15-9.48q.83-5.32.86-6.71.34-12.7-.7-25.37-.54-6.67-.24-14.99.47-12.73-.36-27.31-.02-.21-.18-.07-.12.1-.11.38.03 1.97-.03 3.92a.08.08 0 0 1-.16.01c-.6-3.48-1.02-7.14-2.29-10.43q-4.09-10.61-8.75-20.99c-1.12-2.51-3.52-7.68-5.65-9.12q-.48-.32-.59-.89-.38-2.1-2.33-2.85a.98.98 0 0 1-.62-.76c-.56-3.18-1.46-6.07-3.79-8.41-1.8-1.8-2.63-4.17-4.27-5.98-2.01-2.2-3.32-4.82-5.2-6.84q-5.06-5.44-9.97-11-.12-.14-.29-.2-.18-.06-.37-.1-.48-.13-.83-.48c-6.09-6.32-12.61-12.02-20.2-16.46-2.54-1.49-3.78-3.87-6.74-4.9q-1.48-.52-2.72-1.44c-2.68-2.02-5.6-3.18-8.7-5.08q-1.85-1.12-4.09-1.53a.3.29 39.3 0 1-.06-.56l2.14-.85q.4-.15.05-.39-1.31-.87-1.18-2.39.05-.53.58-.53h.54a.13.13 0 0 0 .03-.25q-.13-.03-.24-.14-.2-.18-.46-.14-6.78.89-12.59-.97" vector-effect="non-scaling-stroke"/><path stroke="#1f0d1c" d="M252.75 58.97v-.38q0-.47-.32-.81-10.24-10.96-17.63-16.32-2.85-2.06-13.54-8.52-.26-.16-.26-.47v-.44q0-.53-.53-.62-2.94-.47-5.4-1.97c-4.14-2.53-8.51-3.12-12.66-6.07q-.39-.28-.86-.32c-4.07-.41-7.54-2.67-10.84-3.35q-2.57-.53-5.18-.81-2.11-.23-5.04-1.2c-3.16-1.05-6.01-.61-9.05-1.58-1.47-.47-3.06-.04-4.26-.94q-.4-.3-.9-.32-10.96-.4-21.9-.12-6.14.16-12.74 1.51c-6.93 1.43-13.66 2.5-20.39 4.95q-3.24 1.18-6.7 1.74a1.8 1.76-67.8 0 0-.83.36q-1.22.98-4.11 2.1-5.82 2.25-15.28 7.36c-1.76.95-2.96 2.79-5.45 3.25q-.48.08-.83.43c-2.08 2.07-4.8 3.06-6.86 4.76-2.44 2-5.74 3.78-7.57 6.3a2 1.99-82.4 0 1-.87.67q-2.44.97-3.81 3.17-.25.42-.72.56l-.73.23a1.1 1.1 0 0 0-.68.64c-1.15 3.04-3.6 3.64-5.28 5.7q-5.04 6.19-10.12 12.36c-2.34 2.84-4.14 7.57-6.34 9.77q-2.02 2.03-2.42 3.95a2.45 2.3 69.8 0 1-.38.89c-4.07 5.89-6.21 13.75-9.62 20.15q-1.08 2.03-.82 4.43.06.5-.16.95-2.68 5.41-2.94 9.53c-.19 3.15-1.6 5.39-1.81 8.04q-.35 4.23-1.21 8.39c-.96 4.65-.57 8.96-1.68 13.57q-.74 3.07.65 6.2.2.46.16.95-.49 6.51 1.14 12.76c1.11 4.22.69 8.03 2.62 12.26a1.92 1.87-55.1 0 1 .16.97c-.21 2.24 1.62 5.73 1.29 6.88q-.14.48.09.92.91 1.77 1.86 6.04.36 1.58 2.54 5.4a1.78 1.74-60.7 0 1 .24.89c.01 2.65 1.49 5.11 2.23 7.44q.72 2.29 2.43 4.12a1.45 1.43 22.4 0 1 .38.89q.18 3.03 2.47 5.07.37.33.57.77.51 1.11 1.39 2 .38.38.46.9.41 2.48 2.37 4.01.4.31.61.77c.51 1.08.8 2 1.72 2.9 2.18 2.12 3.15 4.67 5.35 6.83q1.89 1.85 3.68 4.58c2.26 3.46 6.88 7.02 9.11 9.26 1.61 1.62 3.58 4.19 5.59 5.2 5.49 2.77 10.18 7.11 15.58 10.26q1.41.82 2.48 2.09a1.84 1.8-9.5 0 0 .8.56c4.52 1.61 8.22 4.75 12.15 6.39q9.75 4.06 19.78 7.33c2.56.83 5.79.8 8.67 2.29q.45.23.95.22 2.45-.06 4.75.64c3.37 1.03 6.62.67 10.48 1.44 3.08.6 5.79-.02 8.96.81 2.16.55 8.75 1.29 10.79-.63q.35-.32.83-.32 2.2.02 4.38.15c3.3.19 6.45-.71 9.84-.71 1.95-.01 3.61-.83 5.57-1q2.66-.23 4.11-.7c4.43-1.43 9.14-2.26 13.26-3.74q10.84-3.91 14.41-5.65 24.96-12.12 43.98-32.16c4.52-4.76 7.6-10.77 12.32-15.61q.34-.35.41-.82c.52-3.67 3.21-5.33 4.67-7.72q5.83-9.57 9.32-20.23.02-.05.36-.72.34-.64.02-1.61-1.01-3.06 1.91-4.43.45-.21.38-.7-.52-3.72 1.33-6.58.26-.39-.01-1.2-.13-.39.15-.7 2.28-2.48 1.23-5.56-.18-.54.11-1.03l1.5-2.54q.24-.4.16-.85l-.94-5.52a1.21 1.21 0 0 1 .23-.94c2.79-3.66-2.24-7.31 1.95-9.68q.49-.28.51-.85l.3-10.82q.01-.53-.35-.9l-.75-.78q-.31-.32-.27-.77l.57-6.28q.05-.52-.11-1-.81-2.47-.8-5.06c.02-2.28-.7-4-.9-6.19q-.05-.43-.48-.43h-.47q-.55 0-.23-.44c1.16-1.57.29-4.11-.35-6-.57-1.71-.21-3.51-1.33-5.26q-.27-.42-.25-.92.1-2.91-2.34-4.44-.18-.11-.06-.29.11-.15.18-.33.1-.24.06-.26-.14-.04-.27-.08-.15-.03-.09-.17.74-1.62-.95-2.78a.89.87 19.4 0 1-.37-.75q.12-2.49-1.5-4.19-.15-.16-.09-.36l.12-.37q.13-.38-.05-.75c-1.45-2.93-2.06-5.8-3.88-8.66-2.21-3.5-4.21-7.4-6.58-11.2q-2.19-3.52-7.19-10.33-3.07-4.18-5-5.71-.41-.32-.61-.79-.9-2.05-3.23-2.57a.65.64-83.9 0 1-.5-.63" vector-effect="non-scaling-stroke"/><path stroke="#248186" d="M64.99 167.01c-13.5 31.07-4.57 65.13 22.02 85.95" vector-effect="non-scaling-stroke"/><path stroke="#897e86" d="m87.01 252.96 4.41 3.86" vector-effect="non-scaling-stroke"/><path stroke="#911d39" d="M91.42 256.82q23.54 22.64 54.93 20.52c35.74-2.41 64.41-31.32 66.4-67.05" vector-effect="non-scaling-stroke"/><path stroke="#2b0d1f" d="m212.75 210.29.31-1.54q.2-.97.36.01c.96 5.61-.23 12.26-2 17.49a.16.16 0 0 0 .23.19l.47-.27q.37-.23.49-.65l1.5-5.51a1.03.99-87.3 0 1 .76-.72q1.3-.27 1.41-1.55.04-.55.45-.91 3.31-2.9 5.79-6.49c1.95-2.82 4.39-5.28 6.18-8.21 4.16-6.83 6.82-11.54 10.3-19.35q.61-1.36.21-2.5-.16-.47.02-.94 2.14-5.66 2.35-11.68c.1-2.95 1.62-5.12 1.66-8.23q.03-3.37.57-6.71c.43-2.67-.32-5.01-.51-7.68q-.12-1.8-1.36-2.21-14.34-4.8-24.77-11.31-1.93-1.21-.91-1.91" vector-effect="non-scaling-stroke"/><path stroke="#911d39" d="M216.26 129.61q22.92 14.54 50.04 15.06.6.02.6-.58l.08-8.87" vector-effect="non-scaling-stroke"/><path stroke="#1b0d1b" d="m266.98 135.22.31.46q.26.4.73.27.66-.18.62-.95-.8-14.42-.13-27.88a2.82 2.82 0 0 0-3.07-2.95q-3.78.34-7.57-.39-.5-.09-.62-.59-.72-3.1-.41-6.21.06-.64-1.07-.47" vector-effect="non-scaling-stroke"/><path stroke="#248186" d="M255.77 96.51q-.02-.14-.12-.24-.07-.08-.17-.09-14.08-.69-27.53-7.54" vector-effect="non-scaling-stroke"/><path stroke="#897e86" d="m227.95 88.64-3.89-3.37" vector-effect="non-scaling-stroke"/><path stroke="#911d39" d="M224.06 85.27q-.7-1.72-.26-1.71" vector-effect="non-scaling-stroke"/><path stroke="#1b0d1b" d="M223.8 83.56q-6.26-11.05-8.79-22.56-.94-4.25-.31-7.55a2.71 2.7 5.2 0 0-2.68-3.21l-7.43.04q-.58 0-.72-.55l-.39-1.49q-.1-.41-.5-.25-.52.21-1.01.03" vector-effect="non-scaling-stroke"/><path stroke="#248186" d="m201.97 48.02-.39-5.49a.9.89-2.4 0 0-.91-.83l-37.93.27" vector-effect="non-scaling-stroke"/><path stroke="#260d1e" d="M162.74 41.97q-1.17-.66.51-2.28.89-.85 1.95-.93.61-.04.02-.2-2.31-.63-4.47-.59-9.75.14-19.5.02c-3.04-.04-5.23.84-7.8.95q-3.88.16-7.45 1.8c-1.28.58-2.54.03-4.01.69-3.81 1.71-7.79 1.93-11.41 3.88q-3.83 2.07-7.94 3.55c-2.42.88-4.4 2.74-7.23 3.36q-.49.1-.84.45c-2.22 2.17-5.53 3.7-7.31 4.93Q64.81 73.1 51.68 96.93q-1.27 2.31-3.83 8c-1.99 4.43-4.33 7.88-4.9 13.05-.27 2.41-1.71 4.25-1.99 6.8-.34 3.27-2.1 4.83-2.14 8.67-.03 2.39-1.06 4.21-1.06 6.42q-.02 12.18-.01 24.37c0 2.95 1.37 5.61.94 8.97a1.7 1.65 36.1 0 0 .16.94c1.66 3.34 1.84 7.07 2.9 10.17q1.33 3.91 2.33 7.92.11.47.43.84c1.29 1.47 1.37 3.57 2.02 4.98q1.78 3.86 3.65 7.67c2.21 4.52 5.92 9.38 8.32 14.51q.44.97 1.28.74.51-.14.17-.54-1.32-1.5-.4-3.44.23-.5.08-1.03c-1.89-6.41-4.38-19.69-1.89-25.92.77-1.95.2-4.48.52-6.09q1.72-8.83 5.18-16.91a1.33 1.33 0 0 1 1.52-.77q.16.04.03.73" vector-effect="non-scaling-stroke"/><path stroke="#278187" d="M162.74 41.97v26.52" vector-effect="non-scaling-stroke"/><path stroke="#2e0d20" d="M162.74 68.49q-.37.96-.28 2.2.03.53-.16.11-.06-.11-.05-.3.02-3.66-.01-7.32 0-.1-.05-.12l-.24-.08q-.2-.06-.2.14.05 9.97-.05 13.31-.03 1.03-.91 1.52-.43.23-.45.71l-.28 7.04q-.02.49-.51.47c-6.58-.17-14.45-.85-20.77 1.09-4.59 1.41-9.42 1.99-13.82 4.51-2.6 1.49-6.59 2.94-9.41 5.22-3.32 2.69-6.8 4.33-9.55 7.65q-.9 1.09-2.41 2.22c-2.31 1.73-4.05 5.28-5.72 7.49-3.74 4.95-6.24 10.61-8.73 16.26q-.24.53-.19 1.1l.27 2.99a.82.82 0 0 0 1.33.57q2.21-1.78 4.94-2.53a2.06 1.98 13.1 0 0 .89-.53c2.38-2.45 8.35-4.17 13.44-6.11q2.63-1 9.42-1.75a.89.88 67.1 0 1 .8.33q.38.46.45.78" vector-effect="non-scaling-stroke"/><path stroke="#278187" d="M120.49 125.46q-38.42 6.48-55.5 41.55" vector-effect="non-scaling-stroke"/><path stroke="#1c8084" d="m201.97 48.02.54 3.71" vector-effect="non-scaling-stroke"/><path stroke="#8af2ef" d="m202.51 51.73-27.69.2a.59.59 0 0 0-.58.59q.04 74.97-.02 150.16-.02 21.18-15.42 30.9c-14.79 9.33-32.28 5.71-43.28-7.9" vector-effect="non-scaling-stroke"/><path stroke="#2c8088" d="M115.52 225.68c18.88 7.83 40.11-.37 45.77-19.98q1.46-5.04 1.46-16.04.01-60.58-.01-121.17" vector-effect="non-scaling-stroke"/><path stroke="#991c3b" d="M114.34 224.58c-7.79-13.43-7.24-28.33 2.96-40.08q12.1-13.93 33.35-9.79.6.12.6-.49V136q0-.5-.49-.61-5.27-1.13-10.99-.61" vector-effect="non-scaling-stroke"/><path stroke="#2c8088" d="m139.74 134.65.06-8.57q0-.56-.55-.62-9.27-1.03-18.76 0" vector-effect="non-scaling-stroke"/><path stroke="#f78ea2" d="M202.69 52.18q4.27 20.45 20.56 32.88.22.17.5.17.14.01.31.04" vector-effect="non-scaling-stroke"/><path stroke="#8af2ef" d="M227.95 88.64q11.28 12.55 27.84 15.99" vector-effect="non-scaling-stroke"/><path stroke="#817e84" d="M255.79 104.63q-.06.14-.03.2" vector-effect="non-scaling-stroke"/><path stroke="#f78ea2" d="M255.76 104.83v29.14a.78.78 0 0 1-.79.78q-28.99-.37-52.6-16.86-.86-.61-.87.45-.01 35.86.01 72.16 0 13.13-1.36 19.89c-7.35 36.34-41.47 61.01-78.22 56.96q-14.5-1.6-30.51-10.53" vector-effect="non-scaling-stroke"/><path stroke="#8af2ef" d="M87.01 252.96q-18.31-23.61-16.68-51.55c2.19-37.4 32.64-64.82 69.41-66.76" vector-effect="non-scaling-stroke"/><path stroke="#917e88" d="M139.74 134.65q1.13.54.03.13" vector-effect="non-scaling-stroke"/><path stroke="#f78ea2" d="m139.77 134.78-.02 29.79q0 .57-.54.42c-37.37-9.83-58.18 39.86-24.87 59.59" vector-effect="non-scaling-stroke"/><path stroke="#917e88" d="M114.34 224.58q.51.14 1.18 1.1" vector-effect="non-scaling-stroke"/><path stroke="#891c37" d="M223.8 83.56q-10.43-13.51-10.75-31-.01-.58-.58-.65-4.82-.64-9.78.27" vector-effect="non-scaling-stroke"/><path stroke="#817e84" d="m202.69 52.18-.18-.45" vector-effect="non-scaling-stroke"/><path stroke="#891c37" d="m266.98 135.22.02-28.77q0-.54-.54-.59l-10.7-1.03" vector-effect="non-scaling-stroke"/><path stroke="#991c3b" d="m216.26 129.61-2.78-2.03q-.47-.34-.47.23l-.26 82.48" vector-effect="non-scaling-stroke"/><path stroke="#1c8084" d="m255.77 96.51.02 8.12" vector-effect="non-scaling-stroke"/></g><path fill="#130c19" d="M0 0h67.57q-9.72.75-19.51.47-.75-.02-.97.57-.19.5.35.5l14.88-.14q.68-.01.68.67v.99q0 .68.68.59 7.89-1.08 15.77.25.33.05.02.19c-1.69.81-2.61 1.66-4.57 2.22-2.11.6-3.56 2.2-5.38 3q-3.05 1.33-5.63 3.41c-2.01 1.62-4.3 2.43-6.3 4.08q-2.53 2.09-4.28 3.19c-4.39 2.74-7.71 6.95-11.82 9.88-4.32 3.08-8.02 7.08-11.4 11.13-3.14 3.79-6.01 6.92-8.9 10.49-1.13 1.4-1.83 3.15-3.1 4.67-3.81 4.57-6.86 9.94-9.89 15.04-1.42 2.38-2.38 5.19-3.87 7.78-2.34 4.09-2.82 7.07-2.91 11.45q-.76 34.38-1 68.75 0 .13.24.93.1.35.09.89-.27 21.36.58 53.62 0 .07.06.07h.06a.19.04 90 0 0 .04-.19l.02-4.45a.37.37 0 0 1 .74-.03l.42 5.06q.03.42.23.8.91 1.78 2.07 5.92c1.38 4.95 5.85 10.36 8.83 16.12q1.45 2.79 2.63 4.23c3.02 3.69 4.34 7.74 7.31 10.52q1.88 1.76 2.62 2.92 3.19 5.03 7.76 8.93c1.25 1.06 1.8 2.37 3.04 3.46 2.69 2.34 5.19 4.9 7.81 7.32 3.86 3.57 8.51 6.76 12.85 10.07 5.23 3.97 11.82 8.34 17.78 11.05 3.83 1.74 7.54 3.96 11.2 5.36 4.95 1.88 10.33 4.3 15.15 5.33q.38.08.62.4 1.29 1.75 3.48 1.49a1.93 1.92-35.4 0 1 1.03.17q2.54 1.18 5.32 1.17.48 0 .88.25 3.56 2.21 7.8 1.59.57-.09.8.44l.12.25q.18.41.63.41l60.84-.05a.26.26 0 0 0 .22-.39l-.16-.26a.35.35 0 0 1 .28-.52c5.52-.36 10.34-1.9 15.7-2.95 2.31-.45 4.04-3.07 6.37-1.58q.3.2.63.04.11-.05.22-.12a.12.12 0 0 0-.01-.2q-.33-.19-.23-.68a.15.13-89.2 0 1 .1-.11c4.3-1.28 7.76-2.88 11.93-4.49 5.7-2.2 10.12-5.08 17.57-8.73 1.39-.68 2.31-2.04 3.73-2.8q6.2-3.3 7.9-4.98c2.91-2.89 6.63-4.8 9.39-7.31 7.06-6.44 12.86-11.43 20.22-20.23q.45-.54 1.08-.22.95.48 1.21-.69.15-.69.77-.36l1.07.57q.54.29.75-.28l.58-1.57q.11-.31-.22-.26l-.4.07a.24.24 0 0 1-.23-.38q.3-.4-.41-.85a.76.75-67 0 1-.33-.82q.58-2.23 2.49-2.19a.37.36-85.7 0 0 .37-.33l.61-6.07q.07-.65.61-1.02 1.27-.88 1.39-2.36.04-.51.45-.82 2.54-1.92 3.66-4.87.15-.4.56-.5 1.85-.48 1.21-2.67a.78.77 65.9 0 1 .33-.88c2.03-1.3 3.71-2.09 4.82-4.43 1.32-2.78 2.83-4.57 3.82-7.76q.67-2.11 2.19-4.74c2.08-3.59 3.1-10.05 5.39-14.58q.21-.41.13-.87-.14-.76.36-1.29.42-.43.5.16l.73 4.92a.15.15 0 0 0 .29-.02q.06-4.78.22-9.51c.08-2.57-.34-6.34.15-9.48q.83-5.32.86-6.71.34-12.7-.7-25.37-.54-6.67-.24-14.99.47-12.73-.36-27.31-.02-.21-.18-.07-.12.1-.11.38.03 1.97-.03 3.92a.08.08 0 0 1-.16.01c-.6-3.48-1.02-7.14-2.29-10.43q-4.09-10.61-8.75-20.99c-1.12-2.51-3.52-7.68-5.65-9.12q-.48-.32-.59-.89-.38-2.1-2.33-2.85a.98.98 0 0 1-.62-.76c-.56-3.18-1.46-6.07-3.79-8.41-1.8-1.8-2.63-4.17-4.27-5.98-2.01-2.2-3.32-4.82-5.2-6.84q-5.06-5.44-9.97-11-.12-.14-.29-.2-.18-.06-.37-.1-.48-.13-.83-.48c-6.09-6.32-12.61-12.02-20.2-16.46-2.54-1.49-3.78-3.87-6.74-4.9q-1.48-.52-2.72-1.44c-2.68-2.02-5.6-3.18-8.7-5.08q-1.85-1.12-4.09-1.53a.3.29 39.3 0 1-.06-.56l2.14-.85q.4-.15.05-.39-1.31-.87-1.18-2.39.05-.53.58-.53h.54a.13.13 0 0 0 .03-.25q-.13-.03-.24-.14-.2-.18-.46-.14-6.78.89-12.59-.97H316v316H0V0Z"/><path fill="#1b0c1b" d="M67.57 0h144.4q5.81 1.86 12.59.97.26-.04.46.14.11.11.24.14a.13.13 0 0 1-.03.25h-.54q-.53 0-.58.53-.13 1.52 1.18 2.39.35.24-.05.39l-2.14.85a.3.29 39.3 0 0 .06.56q2.24.41 4.09 1.53c3.1 1.9 6.02 3.06 8.7 5.08q1.24.92 2.72 1.44c2.96 1.03 4.2 3.41 6.74 4.9 7.59 4.44 14.11 10.14 20.2 16.46q.35.35.83.48.19.04.37.1.17.06.29.2 4.91 5.56 9.97 11c1.88 2.02 3.19 4.64 5.2 6.84 1.64 1.81 2.47 4.18 4.27 5.98 2.33 2.34 3.23 5.23 3.79 8.41a.98.98 0 0 0 .62.76q1.95.75 2.33 2.85.11.57.59.89c2.13 1.44 4.53 6.61 5.65 9.12q4.66 10.38 8.75 20.99c1.27 3.29 1.69 6.95 2.29 10.43a.08.08 0 0 0 .16-.01q.06-1.95.03-3.92-.01-.28.11-.38.16-.14.18.07.83 14.58.36 27.31-.3 8.32.24 14.99 1.04 12.67.7 25.37-.03 1.39-.86 6.71c-.49 3.14-.07 6.91-.15 9.48q-.16 4.73-.22 9.51a.15.15 0 0 1-.29.02l-.73-4.92q-.08-.59-.5-.16-.5.53-.36 1.29.08.46-.13.87c-2.29 4.53-3.31 10.99-5.39 14.58q-1.52 2.63-2.19 4.74c-.99 3.19-2.5 4.98-3.82 7.76-1.11 2.34-2.79 3.13-4.82 4.43a.78.77 65.9 0 0-.33.88q.64 2.19-1.21 2.67-.41.1-.56.5-1.12 2.95-3.66 4.87-.41.31-.45.82-.12 1.48-1.39 2.36-.54.37-.61 1.02l-.61 6.07a.37.36-85.7 0 1-.37.33q-1.91-.04-2.49 2.19a.76.75-67 0 0 .33.82q.71.45.41.85a.24.24 0 0 0 .23.38l.4-.07q.33-.05.22.26l-.58 1.57q-.21.57-.75.28l-1.07-.57q-.62-.33-.77.36-.26 1.17-1.21.69-.63-.32-1.08.22c-7.36 8.8-13.16 13.79-20.22 20.23-2.76 2.51-6.48 4.42-9.39 7.31q-1.7 1.68-7.9 4.98c-1.42.76-2.34 2.12-3.73 2.8-7.45 3.65-11.87 6.53-17.57 8.73-4.17 1.61-7.63 3.21-11.93 4.49a.15.13-89.2 0 0-.1.11q-.1.49.23.68a.12.12 0 0 1 .01.2q-.11.07-.22.12-.33.16-.63-.04c-2.33-1.49-4.06 1.13-6.37 1.58-5.36 1.05-10.18 2.59-15.7 2.95a.35.35 0 0 0-.28.52l.16.26a.26.26 0 0 1-.22.39l-60.84.05q-.45 0-.63-.41l-.12-.25q-.23-.53-.8-.44-4.24.62-7.8-1.59-.4-.25-.88-.25-2.78.01-5.32-1.17a1.93 1.92-35.4 0 0-1.03-.17q-2.19.26-3.48-1.49-.24-.32-.62-.4c-4.82-1.03-10.2-3.45-15.15-5.33-3.66-1.4-7.37-3.62-11.2-5.36-5.96-2.71-12.55-7.08-17.78-11.05-4.34-3.31-8.99-6.5-12.85-10.07-2.62-2.42-5.12-4.98-7.81-7.32-1.24-1.09-1.79-2.4-3.04-3.46q-4.57-3.9-7.76-8.93-.74-1.16-2.62-2.92c-2.97-2.78-4.29-6.83-7.31-10.52q-1.18-1.44-2.63-4.23c-2.98-5.76-7.45-11.17-8.83-16.12q-1.16-4.14-2.07-5.92-.2-.38-.23-.8l-.42-5.06a.37.37 0 0 0-.74.03l-.02 4.45a.19.04 90 0 1-.04.19h-.06q-.06 0-.06-.07Q.48 182.36.75 161q.01-.54-.09-.89-.24-.8-.24-.93.24-34.37 1-68.75c.09-4.38.57-7.36 2.91-11.45 1.49-2.59 2.45-5.4 3.87-7.78 3.03-5.1 6.08-10.47 9.89-15.04 1.27-1.52 1.97-3.27 3.1-4.67 2.89-3.57 5.76-6.7 8.9-10.49 3.38-4.05 7.08-8.05 11.4-11.13 4.11-2.93 7.43-7.14 11.82-9.88q1.75-1.1 4.28-3.19c2-1.65 4.29-2.46 6.3-4.08q2.58-2.08 5.63-3.41c1.82-.8 3.27-2.4 5.38-3 1.96-.56 2.88-1.41 4.57-2.22q.31-.14-.02-.19-7.88-1.33-15.77-.25-.68.09-.68-.59v-.99q0-.68-.68-.67l-14.88.14q-.54 0-.35-.5.22-.59.97-.57Q57.85.75 67.57 0Zm185.18 58.97v-.38q0-.47-.32-.81-10.24-10.96-17.63-16.32-2.85-2.06-13.54-8.52-.26-.16-.26-.47v-.44q0-.53-.53-.62-2.94-.47-5.4-1.97c-4.14-2.53-8.51-3.12-12.66-6.07q-.39-.28-.86-.32c-4.07-.41-7.54-2.67-10.84-3.35q-2.57-.53-5.18-.81-2.11-.23-5.04-1.2c-3.16-1.05-6.01-.61-9.05-1.58-1.47-.47-3.06-.04-4.26-.94q-.4-.3-.9-.32-10.96-.4-21.9-.12-6.14.16-12.74 1.51c-6.93 1.43-13.66 2.5-20.39 4.95q-3.24 1.18-6.7 1.74a1.8 1.76-67.8 0 0-.83.36q-1.22.98-4.11 2.1-5.82 2.25-15.28 7.36c-1.76.95-2.96 2.79-5.45 3.25q-.48.08-.83.43c-2.08 2.07-4.8 3.06-6.86 4.76-2.44 2-5.74 3.78-7.57 6.3a2 1.99-82.4 0 1-.87.67q-2.44.97-3.81 3.17-.25.42-.72.56l-.73.23a1.1 1.1 0 0 0-.68.64c-1.15 3.04-3.6 3.64-5.28 5.7q-5.04 6.19-10.12 12.36c-2.34 2.84-4.14 7.57-6.34 9.77q-2.02 2.03-2.42 3.95a2.45 2.3 69.8 0 1-.38.89c-4.07 5.89-6.21 13.75-9.62 20.15q-1.08 2.03-.82 4.43.06.5-.16.95-2.68 5.41-2.94 9.53c-.19 3.15-1.6 5.39-1.81 8.04q-.35 4.23-1.21 8.39c-.96 4.65-.57 8.96-1.68 13.57q-.74 3.07.65 6.2.2.46.16.95-.49 6.51 1.14 12.76c1.11 4.22.69 8.03 2.62 12.26a1.92 1.87-55.1 0 1 .16.97c-.21 2.24 1.62 5.73 1.29 6.88q-.14.48.09.92.91 1.77 1.86 6.04.36 1.58 2.54 5.4a1.78 1.74-60.7 0 1 .24.89c.01 2.65 1.49 5.11 2.23 7.44q.72 2.29 2.43 4.12a1.45 1.43 22.4 0 1 .38.89q.18 3.03 2.47 5.07.37.33.57.77.51 1.11 1.39 2 .38.38.46.9.41 2.48 2.37 4.01.4.31.61.77c.51 1.08.8 2 1.72 2.9 2.18 2.12 3.15 4.67 5.35 6.83q1.89 1.85 3.68 4.58c2.26 3.46 6.88 7.02 9.11 9.26 1.61 1.62 3.58 4.19 5.59 5.2 5.49 2.77 10.18 7.11 15.58 10.26q1.41.82 2.48 2.09a1.84 1.8-9.5 0 0 .8.56c4.52 1.61 8.22 4.75 12.15 6.39q9.75 4.06 19.78 7.33c2.56.83 5.79.8 8.67 2.29q.45.23.95.22 2.45-.06 4.75.64c3.37 1.03 6.62.67 10.48 1.44 3.08.6 5.79-.02 8.96.81 2.16.55 8.75 1.29 10.79-.63q.35-.32.83-.32 2.2.02 4.38.15c3.3.19 6.45-.71 9.84-.71 1.95-.01 3.61-.83 5.57-1q2.66-.23 4.11-.7c4.43-1.43 9.14-2.26 13.26-3.74q10.84-3.91 14.41-5.65 24.96-12.12 43.98-32.16c4.52-4.76 7.6-10.77 12.32-15.61q.34-.35.41-.82c.52-3.67 3.21-5.33 4.67-7.72q5.83-9.57 9.32-20.23.02-.05.36-.72.34-.64.02-1.61-1.01-3.06 1.91-4.43.45-.21.38-.7-.52-3.72 1.33-6.58.26-.39-.01-1.2-.13-.39.15-.7 2.28-2.48 1.23-5.56-.18-.54.11-1.03l1.5-2.54q.24-.4.16-.85l-.94-5.52a1.21 1.21 0 0 1 .23-.94c2.79-3.66-2.24-7.31 1.95-9.68q.49-.28.51-.85l.3-10.82q.01-.53-.35-.9l-.75-.78q-.31-.32-.27-.77l.57-6.28q.05-.52-.11-1-.81-2.47-.8-5.06c.02-2.28-.7-4-.9-6.19q-.05-.43-.48-.43h-.47q-.55 0-.23-.44c1.16-1.57.29-4.11-.35-6-.57-1.71-.21-3.51-1.33-5.26q-.27-.42-.25-.92.1-2.91-2.34-4.44-.18-.11-.06-.29.11-.15.18-.33.1-.24.06-.26-.14-.04-.27-.08-.15-.03-.09-.17.74-1.62-.95-2.78a.89.87 19.4 0 1-.37-.75q.12-2.49-1.5-4.19-.15-.16-.09-.36l.12-.37q.13-.38-.05-.75c-1.45-2.93-2.06-5.8-3.88-8.66-2.21-3.5-4.21-7.4-6.58-11.2q-2.19-3.52-7.19-10.33-3.07-4.18-5-5.71-.41-.32-.61-.79-.9-2.05-3.23-2.57a.65.64-83.9 0 1-.5-.63Z"/><path fill="#220d1d" d="M253.25 59.6q2.33.52 3.23 2.57.2.47.61.79 1.93 1.53 5 5.71 5 6.81 7.19 10.33c2.37 3.8 4.37 7.7 6.58 11.2 1.82 2.86 2.43 5.73 3.88 8.66q.18.37.05.75l-.12.37q-.06.2.09.36 1.62 1.7 1.5 4.19a.89.87 19.4 0 0 .37.75q1.69 1.16.95 2.78-.06.14.09.17.13.04.27.08.04.02-.06.26-.07.18-.18.33-.12.18.06.29 2.44 1.53 2.34 4.44-.02.5.25.92c1.12 1.75.76 3.55 1.33 5.26.64 1.89 1.51 4.43.35 6q-.32.44.23.44h.47q.43 0 .48.43c.2 2.19.92 3.91.9 6.19q-.01 2.59.8 5.06.16.48.11 1l-.57 6.28q-.04.45.27.77l.75.78q.36.37.35.9l-.3 10.82q-.02.57-.51.85c-4.19 2.37.84 6.02-1.95 9.68a1.21 1.21 0 0 0-.23.94l.94 5.52q.08.45-.16.85l-1.5 2.54q-.29.49-.11 1.03 1.05 3.08-1.23 5.56-.28.31-.15.7.27.81.01 1.2-1.85 2.86-1.33 6.58.07.49-.38.7-2.92 1.37-1.91 4.43.32.97-.02 1.61-.34.67-.36.72-3.49 10.66-9.32 20.23c-1.46 2.39-4.15 4.05-4.67 7.72q-.07.47-.41.82c-4.72 4.84-7.8 10.85-12.32 15.61q-19.02 20.04-43.98 32.16-3.57 1.74-14.41 5.65c-4.12 1.48-8.83 2.31-13.26 3.74q-1.45.47-4.11.7c-1.96.17-3.62.99-5.57 1-3.39 0-6.54.9-9.84.71q-2.18-.13-4.38-.15-.48 0-.83.32c-2.04 1.92-8.63 1.18-10.79.63-3.17-.83-5.88-.21-8.96-.81-3.86-.77-7.11-.41-10.48-1.44q-2.3-.7-4.75-.64-.5.01-.95-.22c-2.88-1.49-6.11-1.46-8.67-2.29q-10.03-3.27-19.78-7.33c-3.93-1.64-7.63-4.78-12.15-6.39a1.84 1.8-9.5 0 1-.8-.56q-1.07-1.27-2.48-2.09c-5.4-3.15-10.09-7.49-15.58-10.26-2.01-1.01-3.98-3.58-5.59-5.2-2.23-2.24-6.85-5.8-9.11-9.26q-1.79-2.73-3.68-4.58c-2.2-2.16-3.17-4.71-5.35-6.83-.92-.9-1.21-1.82-1.72-2.9q-.21-.46-.61-.77-1.96-1.53-2.37-4.01-.08-.52-.46-.9-.88-.89-1.39-2-.2-.44-.57-.77-2.29-2.04-2.47-5.07a1.45 1.43 22.4 0 0-.38-.89q-1.71-1.83-2.43-4.12c-.74-2.33-2.22-4.79-2.23-7.44a1.78 1.74-60.7 0 0-.24-.89q-2.18-3.82-2.54-5.4-.95-4.27-1.86-6.04-.23-.44-.09-.92c.33-1.15-1.5-4.64-1.29-6.88a1.92 1.87-55.1 0 0-.16-.97c-1.93-4.23-1.51-8.04-2.62-12.26q-1.63-6.25-1.14-12.76.04-.49-.16-.95-1.39-3.13-.65-6.2c1.11-4.61.72-8.92 1.68-13.57q.86-4.16 1.21-8.39c.21-2.65 1.62-4.89 1.81-8.04q.26-4.12 2.94-9.53.22-.45.16-.95-.26-2.4.82-4.43c3.41-6.4 5.55-14.26 9.62-20.15a2.45 2.3 69.8 0 0 .38-.89q.4-1.92 2.42-3.95c2.2-2.2 4-6.93 6.34-9.77q5.08-6.17 10.12-12.36c1.68-2.06 4.13-2.66 5.28-5.7a1.1 1.1 0 0 1 .68-.64l.73-.23q.47-.14.72-.56 1.37-2.2 3.81-3.17a2 1.99-82.4 0 0 .87-.67c1.83-2.52 5.13-4.3 7.57-6.3 2.06-1.7 4.78-2.69 6.86-4.76q.35-.35.83-.43c2.49-.46 3.69-2.3 5.45-3.25q9.46-5.11 15.28-7.36 2.89-1.12 4.11-2.1a1.8 1.76-67.8 0 1 .83-.36q3.46-.56 6.7-1.74c6.73-2.45 13.46-3.52 20.39-4.95q6.6-1.35 12.74-1.51 10.94-.28 21.9.12.5.02.9.32c1.2.9 2.79.47 4.26.94 3.04.97 5.89.53 9.05 1.58q2.93.97 5.04 1.2 2.61.28 5.18.81c3.3.68 6.77 2.94 10.84 3.35q.47.04.86.32c4.15 2.95 8.52 3.54 12.66 6.07q2.46 1.5 5.4 1.97.53.09.53.62v.44q0 .31.26.47 10.69 6.46 13.54 8.52 7.39 5.36 17.63 16.32.32.34.32.81v.38a.65.64-83.9 0 0 .5.63ZM64.99 167.01c-13.5 31.07-4.57 65.13 22.02 85.95l4.41 3.86q23.54 22.64 54.93 20.52c35.74-2.41 64.41-31.32 66.4-67.05l.31-1.54q.2-.97.36.01c.96 5.61-.23 12.26-2 17.49a.16.16 0 0 0 .23.19l.47-.27q.37-.23.49-.65l1.5-5.51a1.03.99-87.3 0 1 .76-.72q1.3-.27 1.41-1.55.04-.55.45-.91 3.31-2.9 5.79-6.49c1.95-2.82 4.39-5.28 6.18-8.21 4.16-6.83 6.82-11.54 10.3-19.35q.61-1.36.21-2.5-.16-.47.02-.94 2.14-5.66 2.35-11.68c.1-2.95 1.62-5.12 1.66-8.23q.03-3.37.57-6.71c.43-2.67-.32-5.01-.51-7.68q-.12-1.8-1.36-2.21-14.34-4.8-24.77-11.31-1.93-1.21-.91-1.91 22.92 14.54 50.04 15.06.6.02.6-.58l.08-8.87.31.46q.26.4.73.27.66-.18.62-.95-.8-14.42-.13-27.88a2.82 2.82 0 0 0-3.07-2.95q-3.78.34-7.57-.39-.5-.09-.62-.59-.72-3.1-.41-6.21.06-.64-1.07-.47-.02-.14-.12-.24-.07-.08-.17-.09-14.08-.69-27.53-7.54l-3.89-3.37q-.7-1.72-.26-1.71-6.26-11.05-8.79-22.56-.94-4.25-.31-7.55a2.71 2.7 5.2 0 0-2.68-3.21l-7.43.04q-.58 0-.72-.55l-.39-1.49q-.1-.41-.5-.25-.52.21-1.01.03l-.39-5.49a.9.89-2.4 0 0-.91-.83l-37.93.27q-1.17-.66.51-2.28.89-.85 1.95-.93.61-.04.02-.2-2.31-.63-4.47-.59-9.75.14-19.5.02c-3.04-.04-5.23.84-7.8.95q-3.88.16-7.45 1.8c-1.28.58-2.54.03-4.01.69-3.81 1.71-7.79 1.93-11.41 3.88q-3.83 2.07-7.94 3.55c-2.42.88-4.4 2.74-7.23 3.36q-.49.1-.84.45c-2.22 2.17-5.53 3.7-7.31 4.93Q64.81 73.1 51.68 96.93q-1.27 2.31-3.83 8c-1.99 4.43-4.33 7.88-4.9 13.05-.27 2.41-1.71 4.25-1.99 6.8-.34 3.27-2.1 4.83-2.14 8.67-.03 2.39-1.06 4.21-1.06 6.42q-.02 12.18-.01 24.37c0 2.95 1.37 5.61.94 8.97a1.7 1.65 36.1 0 0 .16.94c1.66 3.34 1.84 7.07 2.9 10.17q1.33 3.91 2.33 7.92.11.47.43.84c1.29 1.47 1.37 3.57 2.02 4.98q1.78 3.86 3.65 7.67c2.21 4.52 5.92 9.38 8.32 14.51q.44.97 1.28.74.51-.14.17-.54-1.32-1.5-.4-3.44.23-.5.08-1.03c-1.89-6.41-4.38-19.69-1.89-25.92.77-1.95.2-4.48.52-6.09q1.72-8.83 5.18-16.91a1.33 1.33 0 0 1 1.52-.77q.16.04.03.73Z"/><path fill="#290d1f" d="M162.74 41.97v26.52q-.37.96-.28 2.2.03.53-.16.11-.06-.11-.05-.3.02-3.66-.01-7.32 0-.1-.05-.12l-.24-.08q-.2-.06-.2.14.05 9.97-.05 13.31-.03 1.03-.91 1.52-.43.23-.45.71l-.28 7.04q-.02.49-.51.47c-6.58-.17-14.45-.85-20.77 1.09-4.59 1.41-9.42 1.99-13.82 4.51-2.6 1.49-6.59 2.94-9.41 5.22-3.32 2.69-6.8 4.33-9.55 7.65q-.9 1.09-2.41 2.22c-2.31 1.73-4.05 5.28-5.72 7.49-3.74 4.95-6.24 10.61-8.73 16.26q-.24.53-.19 1.1l.27 2.99a.82.82 0 0 0 1.33.57q2.21-1.78 4.94-2.53a2.06 1.98 13.1 0 0 .89-.53c2.38-2.45 8.35-4.17 13.44-6.11q2.63-1 9.42-1.75a.89.88 67.1 0 1 .8.33q.38.46.45.78-38.42 6.48-55.5 41.55.13-.69-.03-.73a1.33 1.33 0 0 0-1.52.77q-3.46 8.08-5.18 16.91c-.32 1.61.25 4.14-.52 6.09-2.49 6.23 0 19.51 1.89 25.92q.15.53-.08 1.03-.92 1.94.4 3.44.34.4-.17.54-.84.23-1.28-.74c-2.4-5.13-6.11-9.99-8.32-14.51q-1.87-3.81-3.65-7.67c-.65-1.41-.73-3.51-2.02-4.98q-.32-.37-.43-.84-1-4.01-2.33-7.92c-1.06-3.1-1.24-6.83-2.9-10.17a1.7 1.65 36.1 0 1-.16-.94c.43-3.36-.94-6.02-.94-8.97q-.01-12.19.01-24.37c0-2.21 1.03-4.03 1.06-6.42.04-3.84 1.8-5.4 2.14-8.67.28-2.55 1.72-4.39 1.99-6.8.57-5.17 2.91-8.62 4.9-13.05q2.56-5.69 3.83-8Q64.81 73.1 87.26 57.6c1.78-1.23 5.09-2.76 7.31-4.93q.35-.35.84-.45c2.83-.62 4.81-2.48 7.23-3.36q4.11-1.48 7.94-3.55c3.62-1.95 7.6-2.17 11.41-3.88 1.47-.66 2.73-.11 4.01-.69q3.57-1.64 7.45-1.8c2.57-.11 4.76-.99 7.8-.95q9.75.12 19.5-.02 2.16-.04 4.47.59.59.16-.02.2-1.06.08-1.95.93-1.68 1.62-.51 2.28Z"/><path fill="#25f4ee" d="m201.97 48.02.54 3.71-27.69.2a.59.59 0 0 0-.58.59q.04 74.97-.02 150.16-.02 21.18-15.42 30.9c-14.79 9.33-32.28 5.71-43.28-7.9 18.88 7.83 40.11-.37 45.77-19.98q1.46-5.04 1.46-16.04.01-60.58-.01-121.17V41.97l37.93-.27a.9.89-2.4 0 1 .91.83l.39 5.49Z"/><path fill="#130c19" d="M223.8 83.56q-10.43-13.51-10.75-31-.01-.58-.58-.65-4.82-.64-9.78.27l-.18-.45-.54-3.71q.49.18 1.01-.03.4-.16.5.25l.39 1.49q.14.55.72.55l7.43-.04a2.71 2.7 5.2 0 1 2.68 3.21q-.63 3.3.31 7.55 2.53 11.51 8.79 22.56Z"/><path fill="#efefef" d="m202.51 51.73.18.45q4.27 20.45 20.56 32.88.22.17.5.17.14.01.31.04l3.89 3.37q11.28 12.55 27.84 15.99-.06.14-.03.2v29.14a.78.78 0 0 1-.79.78q-28.99-.37-52.6-16.86-.86-.61-.87.45-.01 35.86.01 72.16 0 13.13-1.36 19.89c-7.35 36.34-41.47 61.01-78.22 56.96q-14.5-1.6-30.51-10.53l-4.41-3.86q-18.31-23.61-16.68-51.55c2.19-37.4 32.64-64.82 69.41-66.76q1.13.54.03.13l-.02 29.79q0 .57-.54.42c-37.37-9.83-58.18 39.86-24.87 59.59q.51.14 1.18 1.1c11 13.61 28.49 17.23 43.28 7.9q15.4-9.72 15.42-30.9.06-75.19.02-150.16a.59.59 0 0 1 .58-.59l27.69-.2Z"/><path fill="#ff2c55" d="M223.8 83.56q-.44-.01.26 1.71-.17-.03-.31-.04-.28 0-.5-.17-16.29-12.43-20.56-32.88 4.96-.91 9.78-.27.57.07.58.65.32 17.49 10.75 31Z"/><path fill="#330c21" d="M162.74 68.49q.02 60.59.01 121.17 0 11-1.46 16.04c-5.66 19.61-26.89 27.81-45.77 19.98q-.67-.96-1.18-1.1c-7.79-13.43-7.24-28.33 2.96-40.08q12.1-13.93 33.35-9.79.6.12.6-.49V136q0-.5-.49-.61-5.27-1.13-10.99-.61 1.1.41-.03-.13l.06-8.57q0-.56-.55-.62-9.27-1.03-18.76 0-.07-.32-.45-.78a.89.88 67.1 0 0-.8-.33q-6.79.75-9.42 1.75c-5.09 1.94-11.06 3.66-13.44 6.11a2.06 1.98 13.1 0 1-.89.53q-2.73.75-4.94 2.53a.82.82 0 0 1-1.33-.57l-.27-2.99q-.05-.57.19-1.1c2.49-5.65 4.99-11.31 8.73-16.26 1.67-2.21 3.41-5.76 5.72-7.49q1.51-1.13 2.41-2.22c2.75-3.32 6.23-4.96 9.55-7.65 2.82-2.28 6.81-3.73 9.41-5.22 4.4-2.52 9.23-3.1 13.82-4.51 6.32-1.94 14.19-1.26 20.77-1.09q.49.02.51-.47l.28-7.04q.02-.48.45-.71.88-.49.91-1.52.1-3.34.05-13.31 0-.2.2-.14l.24.08q.05.02.05.12.03 3.66.01 7.32-.01.19.05.3.19.42.16-.11-.09-1.24.28-2.2Z"/><path fill="#25f4ee" d="M227.95 88.64q13.45 6.85 27.53 7.54.1.01.17.09.1.1.12.24l.02 8.12q-16.56-3.44-27.84-15.99Z"/><path fill="#130c19" d="M255.77 96.51q1.13-.17 1.07.47-.31 3.11.41 6.21.12.5.62.59 3.79.73 7.57.39a2.82 2.82 0 0 1 3.07 2.95q-.67 13.46.13 27.88.04.77-.62.95-.47.13-.73-.27l-.31-.46.02-28.77q0-.54-.54-.59l-10.7-1.03q-.03-.06.03-.2l-.02-8.12Z"/><path fill="#ff2c55" d="m266.98 135.22-.08 8.87q0 .6-.6.58-27.12-.52-50.04-15.06l-2.78-2.03q-.47-.34-.47.23l-.26 82.48c-1.99 35.73-30.66 64.64-66.4 67.05q-31.39 2.12-54.93-20.52 16.01 8.93 30.51 10.53c36.75 4.05 70.87-20.62 78.22-56.96q1.36-6.76 1.36-19.89-.02-36.3-.01-72.16.01-1.06.87-.45 23.61 16.49 52.6 16.86a.78.78 0 0 0 .79-.78v-29.14l10.7 1.03q.54.05.54.59l-.02 28.77Z"/><path fill="#25f4ee" d="M139.74 134.65c-36.77 1.94-67.22 29.36-69.41 66.76q-1.63 27.94 16.68 51.55c-26.59-20.82-35.52-54.88-22.02-85.95q17.08-35.07 55.5-41.55 9.49-1.03 18.76 0 .55.06.55.62l-.06 8.57Z"/><path fill="#330c21" d="M216.26 129.61q-1.02.7.91 1.91 10.43 6.51 24.77 11.31 1.24.41 1.36 2.21c.19 2.67.94 5.01.51 7.68q-.54 3.34-.57 6.71c-.04 3.11-1.56 5.28-1.66 8.23q-.21 6.02-2.35 11.68-.18.47-.02.94.4 1.14-.21 2.5c-3.48 7.81-6.14 12.52-10.3 19.35-1.79 2.93-4.23 5.39-6.18 8.21q-2.48 3.59-5.79 6.49-.41.36-.45.91-.11 1.28-1.41 1.55a1.03.99-87.3 0 0-.76.72l-1.5 5.51q-.12.42-.49.65l-.47.27a.16.16 0 0 1-.23-.19c1.77-5.23 2.96-11.88 2-17.49q-.16-.98-.36-.01l-.31 1.54.26-82.48q0-.57.47-.23l2.78 2.03Z"/><path fill="#ff2c55" d="M114.34 224.58c-33.31-19.73-12.5-69.42 24.87-59.59q.54.15.54-.42l.02-29.79q5.72-.52 10.99.61.49.11.49.61v38.22q0 .61-.6.49-21.25-4.14-33.35 9.79c-10.2 11.75-10.75 26.65-2.96 40.08Z"/></svg>